<?xml version="1.0" encoding="utf-8"?>
<!-- Generator: Adobe Illustrator 17.0.0, SVG Export Plug-In . SVG Version: 6.00 Build 0)  -->
<!DOCTYPE svg PUBLIC "-//W3C//DTD SVG 1.1//EN" "http://www.w3.org/Graphics/SVG/1.1/DTD/svg11.dtd">
<svg version="1.1" id="图层_1" xmlns="http://www.w3.org/2000/svg" xmlns:xlink="http://www.w3.org/1999/xlink" x="0px" y="0px"
	 width="638px" height="247px" viewBox="0 0 638 247" enable-background="new 0 0 638 247" xml:space="preserve">
<path fill="#F39800" d="M144.821,216.233c-16.594-5.361-21.18-13.943-18.688-20.942c2.493-6.997,11.341-4.375,14.241-0.643
	c7.647,9.832,30.338,17.034,41.362,13.767c11.024-3.268,9.596-31.856-12.083-38.123c-21.68-6.265-44.806-12.342-57.8-22.541
	c-12.993-10.202-28.268-29.75-17.326-47.299c10.943-17.547,43.247-17.685,56.001-17.685c7.181,0,20.735,2.92,26.526,4.42
	c5.789,1.503,11.298,8.096,15.72,20.386c4.42,12.29-4.295,7.562-5.7,0.82c-3.079-14.783-35.753-24.482-56.192-21.353
	c-20.438,3.129-37.795,16.265-32.872,34.838c4.921,18.574,66.341,38.75,73.523,42.304c7.183,3.554,12.863,8.503,17.04,14.841
	c2.996,4.547,4.899,9.045,5.747,13.498c12.602-27.238,16.606-75.268-0.306-105.727c-22.825-41.11-76.675-69.412-123.275-49.849
	c-38.523,16.172-56.716,82.97-25.473,136.932c25.163,43.465,82.375,53.681,117.104,44.739
	C156.221,218.616,150.019,217.912,144.821,216.233z"/>
<path fill="#F39800" d="M230.964,177.333c3.583,2.229,4.56,5.565,4.074,7.645c-0.9,3.858-6.892,10.338-9.104,7.743
	c-3.287-3.854-6.509-3.959-9.207-3.401c-2.925,0.604-7.354,3.729-7.354,9.675c0,4.638,2.782,10.071,8.89,8.044
	c5.008-1.665,4.654-6.636,7.69-8.893c3.036-2.252,6.362-2.002,8.184,1.906c0.987,2.117-0.093,5.66-2.345,8.284
	c-2.254,2.623-4.757,4.481-7.513,5.577c-2.755,1.093-5.621,1.638-8.595,1.638c-4.767,0-8.857-1.442-12.269-4.33
	c-3.412-2.885-5.117-6.713-5.117-11.48c0-3.106,0.656-6.342,1.968-9.71c1.312-3.369,5.581-10.862,13.457-13.758
	C219.408,174.183,228.036,175.515,230.964,177.333z"/>
<path fill="#F39800" d="M263.003,215.321V92.867h65.779V45.396h20.692v47.472h65.038c0,0,0,72.554,0,78.133
	c-5.162,8.234-18.474,18.473-18.474,18.473v-82.563H282.221v108.412H263.003z"/>
<path fill="#F39800" d="M285.917,85.477c-6.907-10.348-10.846-21.919-11.826-34.738h18.476c0.982,13.8,4.435,25.385,10.348,34.738
	H285.917z"/>
<path fill="#F39800" d="M375.342,85.477c5.913-10.834,9.356-22.416,10.35-34.738h18.474c-0.991,11.341-4.929,22.912-11.824,34.738
	H375.342z"/>
<g>
	<path fill="#F39800" d="M589.672,181.488h-18.474c-0.497,7.392-2.474,14.539-5.914,21.433h-26.609
		c-3.45-6.894-5.426-14.041-5.91-21.433h-18.477c1.479,8.869,3.694,16.02,6.653,21.433h-29.564v12.4h117.52v-12.4h-25.875
		C585.978,197.508,588.192,190.357,589.672,181.488z"/>
	<path fill="#F39800" d="M314.75,161.621c0-11.768,9.57-22.783,24.008-22.783s23.316,12.313,23.316,22.189
		c0,19.183-17.314,29.046-34.607,21.48c4.171,5.943,9.497,11.211,14.146,13.286c19.887,1.956,36.708-14.327,36.708-34.173
		c0-22.229-19.679-39.474-39.564-39.031c-19.603,0.437-39.754,16.336-39.754,39.031c0,30.597,34.029,53.7,67.996,53.7
		c51.252,0,85.814-58.387,95.555-83.282v83.282h16.996c0,0,0-84.602,0-93.711c5.348,11.87,15.542,28.064,15.542,28.064
		l11.067-14.358v39.522h71.687c13.79,0.497,20.439-6.398,19.955-20.696v-18.947l11.139,14.48v-18.235l-24.625-37.554
		c13.463-0.089,24.351-11.026,24.351-24.511c0-13.54-10.976-24.515-24.515-24.515c-10.006,0-18.605,5.997-22.416,14.591
		l-9.688-14.774v-0.064l-0.021,0.032l-0.021-0.032v0.064l-19.413,29.605c-1.9-8.896-9.797-15.57-19.26-15.57
		c-9.759,0-17.839,7.103-19.405,16.416h-14.378V45.396h-16.996v29.733h-18.479v11.826h17.739
		c-9.001,36.467-43.035,121.297-96.272,121.297C333.157,208.252,314.75,181.01,314.75,161.621z M584.152,56.645
		c7.03,0,12.731,5.699,12.731,12.73s-5.7,12.73-12.731,12.73c-7.03,0-12.73-5.699-12.73-12.73S577.122,56.645,584.152,56.645z
		 M552.027,75.693l21.155,27.499h-42.31L552.027,75.693z M513.334,68.184c5.65,0,10.231,4.58,10.231,10.23s-4.58,10.23-10.231,10.23
		s-10.23-4.58-10.23-10.23S507.684,68.184,513.334,68.184z M495.093,131.439c0,0-9.091-20.043-14.063-44.485
		c4.278,0,10.772,0,14.57,0c3.185,6.597,9.917,11.161,17.733,11.161c1.331,0,2.629-0.136,3.886-0.387L495.093,131.439z
		 M580.807,152.667c0,6.903-2.959,10.102-8.87,9.606h-48.042v-20.692h56.912V152.667z M511.007,129.016l10.736-13.955h60.569
		l10.736,13.955H511.007z"/>
</g>
</svg>
