<?xml version="1.0" encoding="utf-8"?>
<!-- Generator: Adobe Illustrator 18.0.0, SVG Export Plug-In . SVG Version: 6.00 Build 0)  -->
<!DOCTYPE svg PUBLIC "-//W3C//DTD SVG 1.1//EN" "http://www.w3.org/Graphics/SVG/1.1/DTD/svg11.dtd">
<svg version="1.1" id="图层_1" xmlns="http://www.w3.org/2000/svg" xmlns:xlink="http://www.w3.org/1999/xlink" x="0px" y="0px"
	 viewBox="0 0 192 192" enable-background="new 0 0 192 192" xml:space="preserve">
<path d="M85.728,106.415l91.002-39.097l-37.415-7.936l24.927-21.668l-75.228,5.295l-0.469,0.665l-18.86,26.713l-24.714-15.6
	L15.854,64.891l27.211,8.948l-0.691,36.316l62.701,48.767l29.351-10.451l-35.448-10.073L85.728,106.415z M96.724,140.18
	l5.329,12.887l-56.39-43.86l24.087-34.116l12.902,31.122l0,0L96.724,140.18z M87.896,49.394l-4.818,50.627L71.645,72.442
	L87.896,49.394z M167.634,68.216l-76.111,32.7l45.177-39.261L167.634,68.216z M135.407,59.115L135.407,59.115L85.633,102.37
	l5.399-56.731l65.153-4.586L135.407,59.115z M45.239,105.011l0.613-32.241l0.278-13.982l21.958,13.86L45.239,105.011z M24.494,64.82
	l18.88-6.552l-0.252,12.677L24.494,64.82z M106.102,155.621l-5.775-13.964l25.023,7.111L106.102,155.621z"/>
</svg>
