<?xml version="1.0" encoding="utf-8"?>
<!DOCTYPE svg PUBLIC "-//W3C//DTD SVG 1.1//EN" "http://www.w3.org/Graphics/SVG/1.1/DTD/svg11.dtd">
<svg version="1.1" id="图形" xmlns="http://www.w3.org/2000/svg" xmlns:xlink="http://www.w3.org/1999/xlink" x="0px" y="0px" width="1024px" height="1024px" viewBox="0 0 1024 1024" enable-background="new 0 0 1024 1024" xml:space="preserve">
  <path fill="#272636" d="M645.581 511.292c-18.631 11.077-38.724 19.16-59.736 24.017-3.853 0.895-7.748 1.731-11.642 2.483-2.827 0.555-8.693 1.698-14.103-2.169-5.3-3.793-6.139-9.397-6.72-13.423l-42.287-281.769c-28.306 20.451-64.651 30.984-103.169 29.355-38.843-1.642-90.503-17.725-119.012-57.957-27.597-38.934-23.020-95.703 10.434-129.235 28.343-28.428 71.337-44.984 115.072-44.984 5.256 0 10.536 0.236 15.786 0.73 36.832 3.413 71.72 18.638 95.716 41.779 27.339 26.36 31.897 60.128 36.305 92.789 0.636 4.63 1.258 9.289 1.947 13.927 1.095 7.192-3.813 13.912-10.939 15.002-7.153 1.102-13.792-3.854-14.873-11.047-0.703-4.78-1.353-9.56-2.002-14.318-4.151-30.747-7.734-57.295-28.469-77.3-19.819-19.099-49-31.707-80.068-34.594-41.513-3.874-83.662 10.222-110.075 36.716-24.202 24.257-27.617 66.97-7.609 95.202 23.057 32.512 66.196 45.579 98.876 46.966 40.215 1.703 77.422-12.027 102.101-37.649 3.461-3.597 8.613-4.889 13.344-3.367 4.719 1.528 8.181 5.625 8.924 10.58l44.593 297.062c0.676-0.149 1.365-0.308 2.042-0.463 18.388-4.252 35.993-11.341 52.326-21.038 57.735-34.289 93.634-97.855 94.634-163.898-24.379 19.615-53.652 33.109-86.076 39.472-19.267 3.786-46.999 7.375-65.143-5.054-8.397-5.753-13.873-14.373-15.861-24.95-0.068-0.392-0.068-0.791-0.096-1.183-0.040-0.186-0.148-0.335-0.176-0.521-0.919-7.011 3.8-13.517 10.709-14.731 0.758-0.122 1.514-0.192 2.245-0.192 6.043 0 11.438 4.252 12.751 10.408 0.068 0.284 0.040 0.571 0.095 0.855 0.026 0.166 0.095 0.314 0.136 0.484 0.689 3.722 2.19 6.199 4.853 8.028 7.464 5.104 22.784 5.446 45.499 0.99 36.846-7.237 68.958-24.946 92.849-51.203 3.421-3.779 8.708-5.199 13.535-3.665 4.827 1.548 8.343 5.773 9.019 10.84 11.247 85.569-31.25 172.787-105.738 217.028zM511.993-161.983c-248.118 0-449.974 201.863-449.974 449.984s201.856 449.981 449.974 449.981c248.126 0 449.989-201.86 449.989-449.981s-201.863-449.984-449.989-449.984zM511.993 710.291c-232.846 0-422.283-189.437-422.283-422.29 0-232.856 189.437-422.293 422.283-422.293 232.853 0 422.298 189.437 422.298 422.293 0 232.853-189.444 422.29-422.298 422.29z" transform="translate(0, 812) scale(1, -1)"/>
</svg>
